HIERARCHY
ROOT Hips
{
 OFFSET 0.000000 0.000000 0.000000
 CHANNELS 6 Xposition Yposition Zposition Yrotation Xrotation Zrotation
 JOINT Chest
 {
  OFFSET 0.000000 9.588913 -0.003946
  CHANNELS 3 Yrotation Xrotation Zrotation
  JOINT Chest2
  {
   OFFSET 0.000000 9.541882 0.008053
   CHANNELS 3 Yrotation Xrotation Zrotation
   JOINT Chest3
   {
    OFFSET 0.000000 9.501360 0.000000
    CHANNELS 3 Yrotation Xrotation Zrotation
    JOINT Chest4
    {
     OFFSET 0.000000 9.491660 0.000000
     CHANNELS 3 Yrotation Xrotation Zrotation
     JOINT Neck
     {
      OFFSET 0.000000 14.331917 0.000000
      CHANNELS 3 Yrotation Xrotation Zrotation
      JOINT Head
      {
       OFFSET 0.000000 8.884799 0.017034
       CHANNELS 3 Yrotation Xrotation Zrotation
       End Site
       {
        OFFSET 0.000000 16.896195 0.008993
       }
      }
     }
     JOINT RightCollar
     {
      OFFSET -2.923010 9.499495 0.000000
      CHANNELS 3 Yrotation Xrotation Zrotation
      JOINT RightShoulder
      {
       OFFSET -13.795216 0.000000 0.000000
       CHANNELS 3 Yrotation Xrotation Zrotation
       JOINT RightElbow
       {
        OFFSET -30.272209 0.000000 0.000000
        CHANNELS 3 Yrotation Xrotation Zrotation
        JOINT RightWrist
        {
         OFFSET -24.478199 0.000000 0.000000
         CHANNELS 3 Yrotation Xrotation Zrotation
         End Site
         {
          OFFSET -18.090752 0.000000 0.000000
         }
        }
       }
      }
     }
     JOINT LeftCollar
     {
      OFFSET 2.923010 9.499495 0.000000
      CHANNELS 3 Yrotation Xrotation Zrotation
      JOINT LeftShoulder
      {
       OFFSET 13.795216 0.000000 0.000000
       CHANNELS 3 Yrotation Xrotation Zrotation
       JOINT LeftElbow
       {
        OFFSET 30.272209 0.000000 0.000000
        CHANNELS 3 Yrotation Xrotation Zrotation
        JOINT LeftWrist
        {
         OFFSET 24.478199 0.000000 0.000000
         CHANNELS 3 Yrotation Xrotation Zrotation
         End Site
         {
          OFFSET 18.090752 0.000000 0.000000
         }
        }
       }
      }
     }
    }
   }
  }
 }
 JOINT RightHip
 {
  OFFSET -7.826875 0.019532 0.001973
  CHANNELS 3 Yrotation Xrotation Zrotation
  JOINT RightKnee
  {
   OFFSET 0.000000 -40.546152 -0.001885
   CHANNELS 3 Yrotation Xrotation Zrotation
   JOINT RightAnkle
   {
    OFFSET 0.000000 -39.417092 -0.003189
    CHANNELS 3 Yrotation Xrotation Zrotation
    JOINT RightToe
    {
     OFFSET 0.000000 -7.579396 17.243563
     CHANNELS 3 Yrotation Xrotation Zrotation
     End Site
     {
      OFFSET 0.000000 -1.500329 6.694466
     }
    }
   }
  }
 }
 JOINT LeftHip
 {
  OFFSET 7.826875 0.019532 0.001973
  CHANNELS 3 Yrotation Xrotation Zrotation
  JOINT LeftKnee
  {
   OFFSET 0.000000 -40.546152 -0.001885
   CHANNELS 3 Yrotation Xrotation Zrotation
   JOINT LeftAnkle
   {
    OFFSET 0.000000 -39.417092 -0.003189
    CHANNELS 3 Yrotation Xrotation Zrotation
    JOINT LeftToe
    {
     OFFSET 0.000000 -7.579396 17.243563
     CHANNELS 3 Yrotation Xrotation Zrotation
     End Site
     {
      OFFSET 0.000000 -1.500329 6.694466
     }
    }
   }
  }
 }
}
MOTION
Frames: 12
Frame Time: 0.008333
-22.100376 46.104013 -8.333988 6.272394 -21.655186 -0.722551 10.727365 9.163428 3.200107 6.015325 5.321874 1.567891 7.549930 6.624140 2.049125 6.015325 5.321874 1.567891 -0.528720 7.510936 -2.870402 0.112885 -17.790838 -3.030400 10.878818 -4.160605 -3.392822 19.972515 -36.061286 66.359746 61.168737 12.549971 18.953259 -7.269453 4.391789 -0.180035 -0.624891 -4.313709 1.424877 -2.026363 -27.587021 -82.457675 -66.575346 -7.283215 -38.853349 15.530641 6.271928 9.818710 39.071263 -69.589712 -16.779806 143.342631 69.234152 157.781562 -2.088500 -18.587006 0.175672 -0.060453 0.062265 -0.027214 54.019109 -80.507859 1.575846 178.315156 75.812165 -153.143588 2.802171 -9.830301 -11.715253 0.044475 -0.034357 0.023942
-22.102124 46.104441 -8.332430 6.270700 -21.654469 -0.725255 10.732480 9.158811 3.204280 6.018621 5.321363 1.567871 7.554050 6.623484 2.049138 6.018621 5.321363 1.567871 -0.519077 7.524299 -2.859830 0.120860 -17.776122 -3.020487 10.869130 -4.159422 -3.389726 19.964795 -36.058641 66.368235 61.170406 12.556562 18.949963 -7.277908 4.388891 -0.186635 -0.644103 -4.312704 1.431504 -2.034888 -27.584457 -82.452570 -66.574452 -7.279122 -38.849213 15.520592 6.267723 9.823321 39.062597 -69.590422 -16.769699 143.333988 69.237449 157.775200 -2.091324 -18.586953 0.171503 -0.058316 0.063806 -0.025609 54.033755 -80.512664 1.570499 178.344683 75.813074 -153.111750 2.801261 -9.828539 -11.712784 0.043836 -0.034544 0.022827
-22.103875 46.105016 -8.330918 6.268708 -21.655300 -0.725732 10.738127 9.156888 3.206042 6.022512 5.321026 1.567989 7.558919 6.623042 2.049337 6.022512 5.321026 1.567989 -0.510849 7.536880 -2.848188 0.127020 -17.762257 -3.009074 10.857838 -4.161064 -3.387047 19.957129 -36.054806 66.375064 61.172039 12.560525 18.947326 -7.284128 4.389077 -0.193268 -0.666228 -4.313632 1.438775 -2.039757 -27.584305 -82.448810 -66.571067 -7.273218 -38.849340 15.517094 6.261760 9.828137 39.057882 -69.588547 -16.763927 143.327114 69.239017 157.769893 -2.091806 -18.588623 0.168302 -0.057942 0.065366 -0.024656 54.042796 -80.514749 1.571078 178.378198 75.812667 -153.075370 2.798716 -9.827465 -11.712765 0.043710 -0.035532 0.022997
-22.105608 46.105481 -8.329899 6.265682 -21.654447 -0.723780 10.743706 9.156879 3.205048 6.026591 5.320789 1.567900 7.564019 6.622727 2.049279 6.026591 5.320789 1.567900 -0.502737 7.547262 -2.835981 0.132924 -17.750788 -2.997087 10.847947 -4.165668 -3.385506 19.948062 -36.052076 66.380286 61.169859 12.561891 18.945549 -7.285555 4.390910 -0.199160 -0.688081 -4.318349 1.446416 -2.044494 -27.587315 -82.444406 -66.563313 -7.268771 -38.850139 15.521462 6.255647 9.833835 39.062871 -69.588491 -16.768119 143.326650 69.238946 157.771052 -2.092124 -18.589634 0.165845 -0.057892 0.065644 -0.024261 54.066804 -80.516440 1.556679 178.398864 75.812309 -153.052439 2.795597 -9.826943 -11.713244 0.043738 -0.036579 0.023712
-22.107611 46.105787 -8.329300 6.262472 -21.651574 -0.722015 10.748369 9.156049 3.203784 6.030211 5.320437 1.568377 7.568553 6.622261 2.049922 6.030211 5.320437 1.568377 -0.493696 7.555751 -2.825473 0.140270 -17.741402 -2.987285 10.839687 -4.168432 -3.386310 19.937996 -36.052080 66.385343 61.166837 12.562668 18.947965 -7.283998 4.392646 -0.203787 -0.705793 -4.324100 1.451464 -2.049072 -27.590457 -82.438691 -66.554486 -7.267093 -38.852703 15.528129 6.250568 9.836851 39.071279 -69.590885 -16.776086 143.330451 69.240054 157.777852 -2.094143 -18.588831 0.163135 -0.058055 0.065188 -0.024122 54.107972 -80.520088 1.524635 178.407799 75.812085 -153.042787 2.795108 -9.826984 -11.709973 0.041698 -0.036792 0.022846
-22.109929 46.106077 -8.328622 6.259762 -21.649097 -0.721690 10.752259 9.154347 3.203352 6.033631 5.319599 1.569731 7.572846 6.621174 2.051650 6.033631 5.319599 1.569731 -0.484476 7.563825 -2.817678 0.148473 -17.732498 -2.980560 10.832785 -4.166519 -3.387812 19.924832 -36.052825 66.390199 61.167795 12.564359 18.956000 -7.281662 4.394861 -0.207847 -0.722066 -4.327435 1.453378 -2.050416 -27.593162 -82.431888 -66.545054 -7.267272 -38.859708 15.534332 6.246283 9.837822 39.076055 -69.593106 -16.779974 143.335477 69.242350 157.785623 -2.094990 -18.588016 0.161000 -0.058376 0.064986 -0.024347 54.148190 -80.524785 1.493883 178.416985 75.811731 -153.033249 2.794758 -9.827927 -11.703903 0.038073 -0.036345 0.020680
-22.112190 46.106356 -8.327786 6.258823 -21.647020 -0.721363 10.754787 9.153008 3.202636 6.036171 5.318103 1.570619 7.576025 6.619276 2.052771 6.036171 5.318103 1.570619 -0.474165 7.572007 -2.811150 0.158180 -17.723489 -2.975507 10.830268 -4.162980 -3.385420 19.910677 -36.051718 66.391614 61.168155 12.566391 18.963968 -7.276254 4.396732 -0.207811 -0.737880 -4.327772 1.454430 -2.051244 -27.596348 -82.424200 -66.533986 -7.266771 -38.865333 15.540339 6.242697 9.838680 39.083710 -69.594451 -16.787125 143.344265 69.244214 157.796451 -2.092117 -18.587497 0.160145 -0.058035 0.064424 -0.024756 54.188007 -80.528818 1.462422 178.431773 75.810548 -153.017233 2.793495 -9.829343 -11.698574 0.035892 -0.036158 0.019023
-22.114285 46.106604 -8.326799 6.259389 -21.644802 -0.720369 10.756015 9.152530 3.201056 6.037715 5.316135 1.570521 7.577941 6.616811 2.052636 6.037715 5.316135 1.570521 -0.461993 7.580156 -2.804392 0.169873 -17.714512 -2.970650 10.831446 -4.161306 -3.379365 19.900855 -36.048794 66.388892 61.163765 12.567644 18.966724 -7.266198 4.396643 -0.202651 -0.751320 -4.327237 1.456272 -2.053909 -27.597756 -82.417385 -66.524086 -7.263372 -38.867761 15.545138 6.239410 9.841003 39.096190 -69.595210 -16.799876 143.355758 69.245075 157.810649 -2.088368 -18.587359 0.159968 -0.057306 0.063588 -0.025330 54.225869 -80.531824 1.430777 178.449695 75.808778 -152.997644 2.792907 -9.829921 -11.695032 0.036188 -0.036845 0.017999
-22.116612 46.106828 -8.325588 6.260916 -21.642303 -0.720916 10.757127 9.151821 3.200321 6.039195 5.313931 1.570165 7.579772 6.614056 2.052173 6.039195 5.313931 1.570165 -0.450698 7.587957 -2.797481 0.180565 -17.705917 -2.965425 10.832565 -4.160554 -3.373795 19.893035 -36.046017 66.385277 61.156771 12.569462 18.965299 -7.256115 4.396313 -0.198682 -0.764213 -4.326449 1.460701 -2.058152 -27.597821 -82.411783 -66.516078 -7.260544 -38.867551 15.546220 6.238303 9.842622 39.104133 -69.596425 -16.808093 143.358734 69.245119 157.816065 -2.086341 -18.588114 0.159714 -0.055909 0.063719 -0.025725 54.246152 -80.536307 1.415114 178.470859 75.807135 -152.975663 2.791911 -9.828526 -11.693403 0.037417 -0.038478 0.017719
-22.119068 46.107121 -8.323917 6.263301 -21.641053 -0.722529 10.758066 9.150786 3.201062 6.040395 5.312178 1.569667 7.581253 6.611868 2.051536 6.040395 5.312178 1.569667 -0.441390 7.594778 -2.791205 0.189232 -17.698401 -2.960461 10.834202 -4.159699 -3.369743 19.883398 -36.045191 66.381676 61.148148 12.572038 18.963951 -7.246084 4.396756 -0.198895 -0.776614 -4.323784 1.468590 -2.061949 -27.599665 -82.408557 -66.508154 -7.259105 -38.863704 15.542367 6.240346 9.843713 39.106751 -69.596659 -16.810727 143.350156 69.244334 157.809576 -2.085340 -18.589059 0.159041 -0.053133 0.064437 -0.025602 54.241386 -80.541366 1.424085 178.495871 75.805035 -152.952500 2.790722 -9.826210 -11.692582 0.038325 -0.040567 0.018385
-22.121393 46.107533 -8.321691 6.264881 -21.642021 -0.723190 10.758747 9.149938 3.202187 6.040878 5.310980 1.569354 7.581845 6.610373 2.051131 6.040878 5.310980 1.569354 -0.431988 7.601128 -2.786174 0.198305 -17.691414 -2.956921 10.837092 -4.157729 -3.367968 19.873812 -36.046484 66.378360 61.139773 12.572455 18.965656 -7.236209 4.395631 -0.200590 -0.787972 -4.319456 1.475535 -2.062784 -27.601096 -82.406633 -66.502247 -7.256110 -38.857779 15.536401 6.242944 9.847808 39.109283 -69.595382 -16.812640 143.345968 69.243746 157.808656 -2.084006 -18.588142 0.158202 -0.050586 0.063872 -0.025618 54.219537 -80.544472 1.451365 178.529011 75.801209 -152.923368 2.792631 -9.824813 -11.691393 0.039200 -0.042454 0.018896
-22.123522 46.107896 -8.319377 6.265341 -21.642561 -0.722223 10.758391 9.148776 3.202087 6.041088 5.309775 1.569702 7.582104 6.608862 2.051548 6.041088 5.309775 1.569702 -0.422209 7.607484 -2.782309 0.208074 -17.684430 -2.954768 10.840663 -4.153766 -3.369790 19.865082 -36.049792 66.377407 61.131051 12.570911 18.969065 -7.229463 4.392081 -0.201521 -0.799656 -4.315708 1.477025 -2.061916 -27.599965 -82.403507 -66.500266 -7.251245 -38.849209 15.530826 6.245465 9.851449 39.118239 -69.594452 -16.821140 143.351324 69.243341 157.818544 -2.082316 -18.585359 0.157240 -0.050313 0.061952 -0.025710 54.204929 -80.546505 1.472144 178.571938 75.796354 -152.885418 2.797654 -9.823139 -11.688415 0.038874 -0.044318 0.018282
